<svg width="15" height="14" viewBox="0 0 15 14" fill="none" xmlns="http://www.w3.org/2000/svg">
<path fill-rule="evenodd" clip-rule="evenodd" d="M4.85477 0.367817C5.56019 0.335342 5.78511 0.328125 7.58206 0.328125C9.379 0.328125 9.60392 0.335943 10.3087 0.367817C11.0136 0.39969 11.4947 0.51215 11.9157 0.675125C12.3565 0.84171 12.7564 1.10211 13.0872 1.43889C13.4239 1.76905 13.6837 2.16837 13.8497 2.60979C14.0133 3.03076 14.1251 3.51187 14.1576 4.21549C14.1901 4.92212 14.1973 5.14704 14.1973 6.94338C14.1973 8.74033 14.1895 8.96525 14.1576 9.67068C14.1258 10.3743 14.0133 10.8554 13.8497 11.2764C13.6837 11.7179 13.4235 12.1178 13.0872 12.4485C12.7564 12.7853 12.3565 13.0451 11.9157 13.211C11.4947 13.3746 11.0136 13.4865 10.3099 13.519C9.60392 13.5514 9.379 13.5586 7.58206 13.5586C5.78511 13.5586 5.56019 13.5508 4.85477 13.519C4.15114 13.4871 3.67003 13.3746 3.24906 13.211C2.8076 13.045 2.40761 12.7848 2.07696 12.4485C1.74041 12.1181 1.47997 11.7183 1.3138 11.277C1.15082 10.856 1.03896 10.3749 1.00649 9.67128C0.974014 8.96465 0.966797 8.73973 0.966797 6.94338C0.966797 5.14644 0.974615 4.92152 1.00649 4.21669C1.03836 3.51187 1.15082 3.03076 1.3138 2.60979C1.48021 2.16842 1.74085 1.76864 2.07756 1.43829C2.40774 1.10181 2.80733 0.841375 3.24846 0.675125C3.66943 0.51215 4.15054 0.400291 4.85416 0.367817H4.85477ZM10.2552 1.55856C9.55761 1.52669 9.34833 1.52007 7.58206 1.52007C5.81578 1.52007 5.6065 1.52669 4.90889 1.55856C4.2636 1.58803 3.91359 1.69568 3.68026 1.78649C3.37174 1.90677 3.15104 2.0493 2.9195 2.28083C2.70002 2.49435 2.53111 2.75429 2.42516 3.04158C2.33435 3.27492 2.2267 3.62493 2.19724 4.27022C2.16536 4.96783 2.15875 5.17711 2.15875 6.94338C2.15875 8.70966 2.16536 8.91894 2.19724 9.61655C2.2267 10.2618 2.33435 10.6118 2.42516 10.8452C2.53101 11.132 2.7 11.3924 2.9195 11.6059C3.13299 11.8254 3.39339 11.9944 3.68026 12.1003C3.91359 12.1911 4.2636 12.2987 4.90889 12.3282C5.6065 12.3601 5.81518 12.3667 7.58206 12.3667C9.34893 12.3667 9.55761 12.3601 10.2552 12.3282C10.9005 12.2987 11.2505 12.1911 11.4839 12.1003C11.7924 11.98 12.0131 11.8375 12.2446 11.6059C12.4641 11.3924 12.6331 11.132 12.739 10.8452C12.8298 10.6118 12.9374 10.2618 12.9669 9.61655C12.9988 8.91894 13.0054 8.70966 13.0054 6.94338C13.0054 5.17711 12.9988 4.96783 12.9669 4.27022C12.9374 3.62493 12.8298 3.27492 12.739 3.04158C12.6187 2.73307 12.4761 2.51236 12.2446 2.28083C12.0311 2.06137 11.7711 1.89246 11.4839 1.78649C11.2505 1.69568 10.9005 1.58803 10.2552 1.55856V1.55856ZM6.73711 8.98269C7.20899 9.17912 7.73443 9.20563 8.22369 9.05769C8.71295 8.90976 9.13568 8.59655 9.41966 8.17156C9.70365 7.74658 9.83128 7.23618 9.78076 6.72755C9.73023 6.21892 9.50469 5.7436 9.14266 5.38278C8.91187 5.15214 8.63281 4.97553 8.32557 4.86568C8.01833 4.75583 7.69056 4.71546 7.36585 4.74749C7.04115 4.77952 6.72758 4.88314 6.44772 5.0509C6.16787 5.21866 5.92869 5.44638 5.74741 5.71767C5.56612 5.98896 5.44725 6.29707 5.39933 6.61981C5.35142 6.94256 5.37566 7.27192 5.47031 7.58417C5.56496 7.89643 5.72767 8.18381 5.94672 8.42564C6.16577 8.66746 6.43571 8.85771 6.73711 8.98269ZM5.17771 4.53904C5.49345 4.2233 5.8683 3.97283 6.28083 3.80195C6.69337 3.63108 7.13553 3.54313 7.58206 3.54313C8.02858 3.54313 8.47074 3.63108 8.88328 3.80195C9.29582 3.97283 9.67066 4.2233 9.9864 4.53904C10.3021 4.85478 10.5526 5.22962 10.7235 5.64216C10.8944 6.0547 10.9823 6.49686 10.9823 6.94338C10.9823 7.38991 10.8944 7.83207 10.7235 8.24461C10.5526 8.65715 10.3021 9.03199 9.9864 9.34773C9.34873 9.9854 8.48386 10.3436 7.58206 10.3436C6.68025 10.3436 5.81538 9.9854 5.17771 9.34773C4.54004 8.71006 4.1818 7.84519 4.1818 6.94338C4.1818 6.04158 4.54004 5.17671 5.17771 4.53904V4.53904ZM11.7364 4.04951C11.8147 3.9757 11.8773 3.88694 11.9206 3.78849C11.964 3.69004 11.9871 3.5839 11.9887 3.47635C11.9902 3.36879 11.9702 3.26202 11.9298 3.16235C11.8893 3.06268 11.8293 2.97213 11.7533 2.89607C11.6772 2.82001 11.5867 2.75999 11.487 2.71955C11.3873 2.67911 11.2805 2.65909 11.173 2.66066C11.0654 2.66222 10.9593 2.68535 10.8608 2.72868C10.7624 2.77201 10.6736 2.83464 10.5998 2.91289C10.4563 3.06506 10.3777 3.26718 10.3807 3.47635C10.3838 3.68551 10.4682 3.88526 10.6161 4.03318C10.7641 4.1811 10.9638 4.26554 11.173 4.26859C11.3821 4.27164 11.5843 4.19305 11.7364 4.04951V4.04951Z" fill="#49454F"/>
</svg>
