<svg width="170" height="64" viewBox="0 0 170 64" fill="none" xmlns="http://www.w3.org/2000/svg">
<g clip-path="url(#clip0_2201_5344)">
<path d="M161.83 0H8.17C3.65783 0 0 3.65783 0 8.17V55.83C0 60.3422 3.65783 64 8.17 64H161.83C166.342 64 170 60.3422 170 55.83V8.17C170 3.65783 166.342 0 161.83 0Z" fill="white"/>
<path d="M71.1591 19.0699C70.6091 18.8999 70.1691 18.6699 69.8491 18.3699C69.6991 18.2399 69.6191 18.0799 69.6191 17.8799C69.6191 17.7399 69.6591 17.6099 69.7391 17.5099C69.8191 17.4099 69.9191 17.3599 70.0291 17.3599C70.1391 17.3599 70.2791 17.4099 70.4391 17.5199C71.1491 18.0499 71.9591 18.3099 72.8791 18.3099C73.5191 18.3099 74.0091 18.1899 74.3591 17.9499C74.6991 17.7099 74.8791 17.3699 74.8791 16.9199C74.8791 16.5699 74.7191 16.2999 74.3991 16.1299C74.0791 15.9499 73.5691 15.7899 72.8591 15.6299C72.1891 15.4899 71.6391 15.3199 71.1991 15.1399C70.7591 14.9599 70.4291 14.7099 70.1891 14.3899C69.9491 14.0699 69.8191 13.6699 69.8191 13.1799C69.8191 12.6899 69.9491 12.2599 70.2191 11.8799C70.4891 11.4999 70.8591 11.1999 71.3391 10.9899C71.8191 10.7799 72.3691 10.6699 72.9791 10.6699C73.5491 10.6699 74.0691 10.7499 74.5491 10.9099C75.0291 11.0699 75.4391 11.3099 75.7691 11.6199C75.9291 11.7599 76.0091 11.9199 76.0091 12.1099C76.0091 12.2499 75.9691 12.3699 75.8791 12.4699C75.7891 12.5699 75.6991 12.6299 75.5891 12.6299C75.4891 12.6299 75.3491 12.5799 75.1891 12.4699C74.8191 12.1899 74.4791 11.9899 74.1491 11.8599C73.8291 11.7399 73.4391 11.6699 72.9791 11.6699C72.3591 11.6699 71.8791 11.7999 71.5391 12.0499C71.1991 12.2999 71.0191 12.6499 71.0191 13.0999C71.0191 13.4799 71.1691 13.7699 71.4791 13.9699C71.7791 14.1699 72.2691 14.3399 72.9391 14.4999C73.6391 14.6599 74.2091 14.8299 74.6491 14.9999C75.0891 15.1699 75.4291 15.4099 75.6891 15.7099C75.9491 16.0099 76.0791 16.3999 76.0791 16.8699C76.0791 17.3399 75.9491 17.7799 75.6791 18.1499C75.4091 18.5199 75.0391 18.8099 74.5491 19.0099C74.0591 19.2099 73.5091 19.3199 72.8791 19.3199C72.2491 19.3199 71.6891 19.2399 71.1491 19.0699H71.1591Z" fill="#6D6E70"/>
<path d="M82.4494 13.41C82.5594 13.51 82.6095 13.66 82.6095 13.84V18.72C82.6095 18.89 82.5495 19.02 82.4395 19.13C82.3295 19.23 82.1795 19.29 81.9995 19.29C81.8295 19.29 81.6994 19.24 81.5894 19.14C81.4894 19.04 81.4295 18.91 81.4295 18.74V18.28C81.2495 18.62 80.9894 18.87 80.6694 19.05C80.3494 19.23 79.9795 19.31 79.5795 19.31C78.1595 19.31 77.4395 18.53 77.4395 16.96V13.84C77.4395 13.66 77.4894 13.51 77.5994 13.41C77.7094 13.31 77.8595 13.25 78.0495 13.25C78.2395 13.25 78.3794 13.3 78.4894 13.41C78.5994 13.51 78.6495 13.66 78.6495 13.84V16.95C78.6495 17.42 78.7495 17.77 78.9395 17.99C79.1295 18.21 79.4295 18.33 79.8295 18.33C80.2995 18.33 80.6794 18.18 80.9594 17.87C81.2394 17.56 81.3895 17.16 81.3895 16.66V13.84C81.3895 13.66 81.4494 13.52 81.5594 13.41C81.6694 13.3 81.8195 13.25 81.9995 13.25C82.1795 13.25 82.3295 13.3 82.4395 13.41H82.4494Z" fill="#6D6E70"/>
<path d="M88.7986 13.6097C89.1986 13.8697 89.4986 14.2297 89.7186 14.6897C89.9386 15.1497 90.0486 15.6897 90.0486 16.2997C90.0486 16.9097 89.9386 17.4297 89.7286 17.8797C89.5086 18.3397 89.2086 18.6897 88.8086 18.9397C88.4086 19.1897 87.9586 19.3097 87.4486 19.3097C87.0086 19.3097 86.6186 19.2197 86.2886 19.0297C85.9486 18.8397 85.6986 18.5697 85.5186 18.2197V20.8997C85.5186 21.0697 85.4686 21.1997 85.3586 21.2997C85.2486 21.3997 85.1086 21.4497 84.9286 21.4497C84.7486 21.4497 84.5986 21.3997 84.4786 21.2897C84.3586 21.1797 84.3086 21.0497 84.3086 20.8697V13.8397C84.3086 13.6597 84.3686 13.5197 84.4786 13.4097C84.5886 13.2997 84.7386 13.2497 84.9186 13.2497C85.0986 13.2497 85.2386 13.2997 85.3486 13.4097C85.4586 13.5197 85.5186 13.6597 85.5186 13.8397V14.3297C85.6986 13.9797 85.9486 13.7097 86.2886 13.5097C86.6286 13.3097 87.0086 13.2197 87.4486 13.2197C87.9486 13.2197 88.3986 13.3497 88.7986 13.5997V13.6097ZM88.3886 17.8197C88.6786 17.4597 88.8186 16.9597 88.8186 16.2997C88.8186 15.6397 88.6686 15.1197 88.3786 14.7497C88.0886 14.3797 87.6786 14.1997 87.1586 14.1997C86.6386 14.1997 86.2286 14.3797 85.9386 14.7397C85.6586 15.0997 85.5086 15.6097 85.5086 16.2797C85.5086 16.9497 85.6486 17.4597 85.9386 17.8197C86.2286 18.1797 86.6286 18.3597 87.1586 18.3597C87.6886 18.3597 88.0986 18.1797 88.3786 17.8297L88.3886 17.8197Z" fill="#6D6E70"/>
<path d="M95.8884 13.6097C96.2884 13.8697 96.5884 14.2297 96.8084 14.6897C97.0284 15.1497 97.1384 15.6897 97.1384 16.2997C97.1384 16.9097 97.0284 17.4297 96.8184 17.8797C96.5984 18.3397 96.2984 18.6897 95.8984 18.9397C95.4984 19.1897 95.0484 19.3097 94.5384 19.3097C94.0984 19.3097 93.7084 19.2197 93.3784 19.0297C93.0384 18.8397 92.7884 18.5697 92.6084 18.2197V20.8997C92.6084 21.0697 92.5584 21.1997 92.4484 21.2997C92.3384 21.3997 92.1984 21.4497 92.0184 21.4497C91.8384 21.4497 91.6884 21.3997 91.5684 21.2897C91.4484 21.1797 91.3984 21.0497 91.3984 20.8697V13.8397C91.3984 13.6597 91.4584 13.5197 91.5684 13.4097C91.6784 13.2997 91.8284 13.2497 92.0084 13.2497C92.1884 13.2497 92.3284 13.2997 92.4384 13.4097C92.5484 13.5197 92.6084 13.6597 92.6084 13.8397V14.3297C92.7884 13.9797 93.0384 13.7097 93.3784 13.5097C93.7184 13.3097 94.0984 13.2197 94.5384 13.2197C95.0384 13.2197 95.4884 13.3497 95.8884 13.5997V13.6097ZM95.4784 17.8197C95.7684 17.4597 95.9084 16.9597 95.9084 16.2997C95.9084 15.6397 95.7584 15.1197 95.4684 14.7497C95.1784 14.3797 94.7684 14.1997 94.2484 14.1997C93.7284 14.1997 93.3184 14.3797 93.0284 14.7397C92.7484 15.0997 92.5984 15.6097 92.5984 16.2797C92.5984 16.9497 92.7384 17.4597 93.0284 17.8197C93.3184 18.1797 93.7184 18.3597 94.2484 18.3597C94.7784 18.3597 95.1884 18.1797 95.4684 17.8297L95.4784 17.8197Z" fill="#6D6E70"/>
<path d="M99.5182 18.9402C99.0782 18.6902 98.7482 18.3402 98.5082 17.8802C98.2682 17.4202 98.1582 16.8902 98.1582 16.2802C98.1582 15.6702 98.2782 15.1302 98.5082 14.6702C98.7482 14.2102 99.0782 13.8602 99.5182 13.6102C99.9582 13.3602 100.458 13.2402 101.038 13.2402C101.618 13.2402 102.118 13.3602 102.558 13.6102C102.998 13.8602 103.328 14.2102 103.568 14.6702C103.808 15.1302 103.918 15.6702 103.918 16.2802C103.918 16.8902 103.798 17.4202 103.568 17.8802C103.328 18.3402 102.998 18.6902 102.558 18.9402C102.118 19.1902 101.618 19.3102 101.038 19.3102C100.458 19.3102 99.9582 19.1902 99.5182 18.9402ZM102.268 17.8202C102.548 17.4702 102.698 16.9502 102.698 16.2702C102.698 15.5902 102.558 15.0802 102.268 14.7302C101.978 14.3702 101.568 14.2002 101.048 14.2002C100.528 14.2002 100.108 14.3802 99.8282 14.7302C99.5382 15.0902 99.3982 15.6002 99.3982 16.2702C99.3982 16.9402 99.5382 17.4702 99.8282 17.8202C100.108 18.1702 100.518 18.3502 101.058 18.3502C101.598 18.3502 102.008 18.1702 102.288 17.8202H102.268Z" fill="#6D6E70"/>
<path d="M108.91 13.7495C108.91 13.9295 108.87 14.0595 108.78 14.1495C108.69 14.2395 108.54 14.2895 108.32 14.3095L107.96 14.3495C107.46 14.3995 107.08 14.5695 106.84 14.8795C106.6 15.1795 106.47 15.5495 106.47 15.9795V18.7295C106.47 18.9195 106.41 19.0695 106.3 19.1595C106.19 19.2495 106.04 19.2995 105.87 19.2995C105.7 19.2995 105.55 19.2495 105.43 19.1595C105.31 19.0695 105.26 18.9195 105.26 18.7295V13.8495C105.26 13.6695 105.32 13.5195 105.43 13.4195C105.55 13.3195 105.69 13.2695 105.87 13.2695C106.03 13.2695 106.16 13.3195 106.27 13.4195C106.38 13.5195 106.43 13.6595 106.43 13.8295V14.4095C106.59 14.0595 106.82 13.7895 107.13 13.6095C107.43 13.4295 107.78 13.3195 108.16 13.2895H108.33C108.71 13.2495 108.91 13.4195 108.91 13.7695V13.7495Z" fill="#6D6E70"/>
<path d="M113.4 18.4998C113.48 18.5798 113.51 18.6798 113.51 18.8198C113.51 18.9798 113.45 19.0998 113.32 19.1898C113.2 19.2698 113.01 19.3098 112.77 19.2898L112.45 19.2698C111.8 19.2198 111.32 19.0198 111 18.6798C110.68 18.3298 110.52 17.8198 110.52 17.1398V14.3198H109.8C109.45 14.3198 109.27 14.1598 109.27 13.8498C109.27 13.7098 109.32 13.5898 109.41 13.5098C109.5 13.4298 109.63 13.3798 109.8 13.3798H110.52V12.1398C110.52 11.9598 110.57 11.8098 110.68 11.7098C110.79 11.6098 110.93 11.5498 111.12 11.5498C111.31 11.5498 111.45 11.5998 111.56 11.7098C111.67 11.8098 111.73 11.9598 111.73 12.1398V13.3798H112.92C113.09 13.3798 113.22 13.4198 113.31 13.5098C113.4 13.5998 113.45 13.7098 113.45 13.8498C113.45 13.9998 113.4 14.1198 113.31 14.1998C113.22 14.2798 113.09 14.3198 112.92 14.3198H111.73V17.2198C111.73 17.5998 111.81 17.8698 111.96 18.0498C112.12 18.2298 112.35 18.3298 112.67 18.3498L113.01 18.3698C113.19 18.3898 113.31 18.4298 113.39 18.5098L113.4 18.4998Z" fill="#6D6E70"/>
<path d="M138.45 18.9402C138.01 18.6902 137.68 18.3402 137.44 17.8802C137.2 17.4202 137.09 16.8902 137.09 16.2802C137.09 15.6702 137.21 15.1302 137.44 14.6702C137.68 14.2102 138.01 13.8602 138.45 13.6102C138.89 13.3602 139.39 13.2402 139.97 13.2402C140.55 13.2402 141.05 13.3602 141.49 13.6102C141.93 13.8602 142.26 14.2102 142.5 14.6702C142.74 15.1302 142.85 15.6702 142.85 16.2802C142.85 16.8902 142.73 17.4202 142.5 17.8802C142.26 18.3402 141.93 18.6902 141.49 18.9402C141.05 19.1902 140.55 19.3102 139.97 19.3102C139.39 19.3102 138.89 19.1902 138.45 18.9402ZM141.2 17.8202C141.48 17.4702 141.63 16.9502 141.63 16.2702C141.63 15.5902 141.49 15.0802 141.2 14.7302C140.91 14.3702 140.5 14.2002 139.98 14.2002C139.46 14.2002 139.04 14.3802 138.76 14.7302C138.47 15.0902 138.33 15.6002 138.33 16.2702C138.33 16.9402 138.47 17.4702 138.76 17.8202C139.05 18.1702 139.45 18.3502 139.99 18.3502C140.53 18.3502 140.94 18.1702 141.22 17.8202H141.2Z" fill="#6D6E70"/>
<path d="M149.439 15.5902V18.7102C149.439 18.8902 149.389 19.0402 149.279 19.1402C149.169 19.2402 149.019 19.2902 148.829 19.2902C148.639 19.2902 148.499 19.2402 148.389 19.1302C148.279 19.0302 148.229 18.8902 148.229 18.7102V15.6502C148.229 15.1502 148.129 14.7902 147.939 14.5602C147.749 14.3302 147.439 14.2102 147.019 14.2102C146.529 14.2102 146.139 14.3602 145.839 14.6702C145.539 14.9702 145.399 15.3802 145.399 15.8902V18.7102C145.399 18.8902 145.349 19.0302 145.239 19.1302C145.129 19.2302 144.989 19.2902 144.799 19.2902C144.609 19.2902 144.469 19.2402 144.359 19.1302C144.249 19.0302 144.189 18.8902 144.189 18.7102V13.8302C144.189 13.6602 144.249 13.5202 144.359 13.4202C144.469 13.3202 144.619 13.2602 144.799 13.2602C144.979 13.2602 145.119 13.3102 145.219 13.4202C145.319 13.5202 145.379 13.6602 145.379 13.8302V14.3202C145.569 13.9702 145.839 13.7002 146.179 13.5202C146.519 13.3402 146.909 13.2402 147.339 13.2402C148.739 13.2402 149.439 14.0302 149.439 15.6002V15.5902Z" fill="#6D6E70"/>
<path d="M88.6105 46.5603C88.6905 46.8003 88.7405 47.0303 88.7405 47.2403C88.7405 47.8003 88.5305 48.2803 88.1005 48.6503C87.6705 49.0303 87.1705 49.2103 86.6105 49.2103C86.3405 49.2103 86.0805 49.1503 85.8305 49.0203C85.5805 48.8903 85.3705 48.7203 85.2005 48.4903L78.3905 39.5103L75.4105 42.3703V47.3003C75.4105 47.8603 75.2305 48.3303 74.8605 48.6803C74.4905 49.0303 74.0205 49.2103 73.4305 49.2103C72.8405 49.2103 72.4005 49.0303 72.0305 48.6603C71.6605 48.2903 71.4805 47.8403 71.4805 47.2903V29.1503C71.4805 28.6103 71.6705 28.1503 72.0405 27.7803C72.4105 27.4103 72.9005 27.2303 73.4805 27.2303C74.0605 27.2303 74.5105 27.4103 74.8605 27.7603C75.2205 28.1203 75.3905 28.5803 75.3905 29.1403V37.6803L85.4405 27.7903C85.9205 27.3103 86.4305 27.0703 86.9805 27.0703C87.4605 27.0703 87.8705 27.2703 88.2005 27.6703C88.5305 28.0703 88.7005 28.4903 88.7005 28.9303C88.7005 29.3703 88.5105 29.7803 88.1305 30.1503L81.2905 36.6803L88.2905 45.9403C88.4105 46.1103 88.5205 46.3103 88.6005 46.5503L88.6105 46.5603Z" fill="#231F20"/>
<path d="M106.071 45.3406C105.321 46.6706 104.291 47.7006 102.981 48.4306C101.671 49.1606 100.231 49.5306 98.6611 49.5306C97.0911 49.5306 95.6211 49.1606 94.3311 48.4306C93.0311 47.7006 92.0111 46.6706 91.2511 45.3406C90.4911 44.0106 90.1211 42.5106 90.1211 40.8306C90.1211 39.1506 90.5011 37.6506 91.2511 36.3206C92.0011 34.9906 93.0311 33.9506 94.3311 33.2106C95.6311 32.4706 97.0711 32.1006 98.6611 32.1006C100.251 32.1006 101.671 32.4706 102.981 33.2106C104.291 33.9506 105.321 34.9906 106.071 36.3206C106.821 37.6506 107.201 39.1506 107.201 40.8306C107.201 42.5106 106.821 44.0106 106.071 45.3406ZM102.791 38.0906C102.361 37.2806 101.791 36.6606 101.061 36.2206C100.341 35.7806 99.5411 35.5606 98.6611 35.5606C97.7811 35.5606 96.9811 35.7806 96.2611 36.2206C95.5411 36.6606 94.9611 37.2806 94.5311 38.0906C94.1011 38.9006 93.8911 39.8106 93.8911 40.8406C93.8911 41.8706 94.1011 42.7806 94.5311 43.5706C94.9611 44.3706 95.5311 44.9806 96.2611 45.4206C96.9811 45.8606 97.7811 46.0806 98.6611 46.0806C99.5411 46.0806 100.341 45.8606 101.061 45.4206C101.781 44.9806 102.361 44.3606 102.791 43.5706C103.221 42.7706 103.431 41.8606 103.431 40.8406C103.431 39.8206 103.221 38.9006 102.791 38.0906Z" fill="#231F20"/>
<path d="M110.421 40.9305C110.051 40.5705 109.871 40.1205 109.871 39.5805C109.871 39.0405 110.051 38.6205 110.421 38.2605C110.791 37.9005 111.241 37.7305 111.791 37.7305H117.251C117.791 37.7305 118.251 37.9105 118.621 38.2805C118.991 38.6505 119.171 39.1005 119.171 39.6505C119.171 40.2005 118.991 40.6105 118.621 40.9505C118.251 41.3005 117.801 41.4705 117.251 41.4705H111.791C111.251 41.4705 110.791 41.2905 110.421 40.9405V40.9305Z" fill="#231F20"/>
<path d="M129.34 29.9205C129.05 30.3305 128.9 30.7705 128.9 31.2505V32.7305H131.76C132.26 32.7305 132.68 32.8905 133.02 33.2205C133.35 33.5405 133.52 33.9605 133.52 34.4605C133.52 34.9605 133.35 35.3805 133.02 35.7005C132.69 36.0205 132.27 36.1905 131.76 36.1905H128.9V47.3005C128.9 47.8405 128.72 48.3005 128.37 48.6705C128.01 49.0405 127.56 49.2205 127.02 49.2205C126.48 49.2205 126.03 49.0405 125.67 48.6705C125.31 48.3005 125.14 47.8505 125.14 47.3005V36.1905H123.44C122.94 36.1905 122.52 36.0305 122.18 35.7005C121.85 35.3805 121.68 34.9605 121.68 34.4605C121.68 33.9605 121.85 33.5405 122.18 33.2205C122.51 32.9005 122.93 32.7305 123.44 32.7305H125.14V31.2905C125.14 29.7205 125.68 28.4405 126.76 27.4605C127.84 26.4805 129.39 25.9805 131.42 25.9805C132.19 25.9805 132.87 26.1405 133.45 26.4505C134.03 26.7605 134.31 27.2505 134.31 27.8905C134.31 28.3905 134.16 28.8005 133.87 29.1105C133.58 29.4205 133.22 29.5805 132.8 29.5805C132.69 29.5805 132.59 29.5705 132.47 29.5505C132.35 29.5305 132.23 29.5105 132.11 29.4905C131.61 29.3605 131.19 29.3005 130.85 29.3005C130.14 29.3005 129.64 29.5005 129.34 29.9105V29.9205ZM136 30.0305C135.71 29.8005 135.56 29.3905 135.56 28.8105V28.2105C135.56 27.6205 135.72 27.2205 136.03 26.9905C136.34 26.7605 136.85 26.6405 137.54 26.6405C138.27 26.6405 138.79 26.7605 139.08 26.9905C139.37 27.2205 139.52 27.6305 139.52 28.2105V28.8105C139.52 29.4205 139.37 29.8305 139.06 30.0505C138.76 30.2705 138.24 30.3805 137.51 30.3805C136.78 30.3805 136.3 30.2705 136 30.0305ZM138.89 48.6605C138.53 49.0305 138.08 49.2105 137.54 49.2105C137 49.2105 136.54 49.0305 136.19 48.6605C135.83 48.2905 135.66 47.8405 135.66 47.2905V34.3205C135.66 33.7805 135.84 33.3205 136.19 32.9505C136.55 32.5805 137 32.4005 137.54 32.4005C138.08 32.4005 138.53 32.5805 138.89 32.9505C139.25 33.3205 139.42 33.7705 139.42 34.3205V47.2905C139.42 47.8305 139.24 48.2905 138.89 48.6605Z" fill="#231F20"/>
<path d="M32.0109 57.1801C45.8457 57.1801 57.0609 45.9648 57.0609 32.1301C57.0609 18.2953 45.8457 7.08008 32.0109 7.08008C18.1762 7.08008 6.96094 18.2953 6.96094 32.1301C6.96094 45.9648 18.1762 57.1801 32.0109 57.1801Z" fill="#00BBF1"/>
<path d="M43.4191 34.3298C42.0391 34.4998 40.9191 34.3698 40.9191 34.3698V25.9098H42.6191C43.7391 25.9098 44.8291 26.3798 45.5591 27.2298C46.0791 27.8298 46.4891 28.6698 46.4891 29.8398C46.4891 32.6898 45.0191 33.8098 43.4291 34.3298M50.6991 28.3898C50.1991 25.7698 48.7891 24.1398 47.3491 23.1298C45.9091 22.1198 44.0691 21.5498 42.2491 21.5498H16.3791C15.4791 21.5498 15.1391 22.4298 15.1291 22.8698C15.1291 22.9298 15.1291 23.1598 15.1291 23.1598C15.1291 23.1598 15.0891 34.5998 15.1691 40.7098C15.4091 44.3198 19.0291 44.3198 19.0291 44.3198C19.0291 44.3198 30.8291 44.2898 36.4891 44.2498C36.7591 44.2498 37.0191 44.2198 37.2791 44.1598C40.4991 43.3498 40.8291 40.3598 40.7991 38.6898C47.2791 39.0498 51.8391 34.4798 50.6891 28.3998" fill="white"/>
<path d="M19.0291 45.3196C17.4491 45.3196 14.4191 44.3696 14.1691 40.7796C14.0891 34.6796 14.1291 23.2796 14.1291 23.1596V22.8596C14.1291 21.9396 14.8491 20.5596 16.3791 20.5596H42.2391C44.3091 20.5596 46.2691 21.1696 47.9191 22.3196C49.9391 23.7296 51.2091 25.7096 51.6791 28.2096C52.2591 31.2696 51.5391 34.1496 49.6491 36.3096C47.7891 38.4296 44.9591 39.6396 41.7791 39.7096C41.5491 42.5896 40.0691 44.4996 37.5291 45.1296C37.2091 45.2096 36.8591 45.2496 36.5091 45.2496C30.8491 45.2896 19.0491 45.3196 19.0491 45.3196H19.0291ZM16.3791 22.5596C16.1791 22.5596 16.1291 22.8796 16.1291 22.8896V23.1596C16.1291 23.2896 16.0891 34.6696 16.1691 40.6996C16.3391 43.2396 18.7491 43.3196 19.0291 43.3196C19.0291 43.3196 30.8191 43.2896 36.4791 43.2496C36.6791 43.2496 36.8591 43.2296 37.0291 43.1896C38.9091 42.7196 39.8391 41.2096 39.7891 38.7096C39.7891 38.4296 39.8991 38.1596 40.0991 37.9696C40.2991 37.7796 40.5691 37.6696 40.8491 37.6896C43.8191 37.8496 46.4791 36.8696 48.1291 34.9896C49.6091 33.3096 50.1691 31.0296 49.6991 28.5796C49.3291 26.6096 48.3391 25.0596 46.7591 23.9596C45.4491 23.0396 43.8791 22.5596 42.2291 22.5596H16.3791ZM41.9391 35.4196C41.2691 35.4196 40.8291 35.3696 40.7991 35.3696C40.2991 35.3096 39.9091 34.8796 39.9091 34.3796V25.9196C39.9091 25.3696 40.3591 24.9196 40.9091 24.9196H42.6091C44.0491 24.9196 45.3991 25.5296 46.3091 26.5896C47.0891 27.4896 47.4791 28.5896 47.4791 29.8496C47.4791 32.6496 46.2191 34.4796 43.7291 35.2896C43.6691 35.3096 43.6091 35.3196 43.5491 35.3296C42.9491 35.4096 42.3991 35.4296 41.9491 35.4296L41.9391 35.4196ZM41.9191 33.4196C42.2691 33.4296 42.7191 33.3996 43.2091 33.3496C44.3491 32.9596 45.4891 32.2196 45.4891 29.8396C45.4891 29.0696 45.2591 28.4096 44.7991 27.8896C44.2691 27.2696 43.4691 26.9196 42.6191 26.9196H41.9191V33.4196Z" fill="black"/>
<path d="M27.8007 39.5697C28.0807 39.7097 28.2607 39.5397 28.2607 39.5397C28.2607 39.5397 32.3807 35.7797 34.2307 33.6197C35.8807 31.6797 35.9907 28.4197 33.1507 27.2097C30.3207 25.9897 27.9907 28.6397 27.9907 28.6397C25.9707 26.4197 22.9107 26.5297 21.5007 28.0297C20.0907 29.5297 20.5807 32.1097 21.6307 33.5497C22.6207 34.8997 26.9707 38.7797 27.6307 39.4297C27.6307 39.4297 27.6807 39.4797 27.7907 39.5597" fill="#FF5F5F"/>
</g>
<rect x="0.25" y="0.25" width="169.5" height="63.5" rx="7.75" stroke="#C5C5C5" stroke-width="0.5"/>
<path d="M127.071 18.4114C127.282 18.6322 127.567 18.7978 127.914 18.9189L127.914 18.9209C128.26 19.043 128.618 19.1 129.019 19.1C129.422 19.1 129.777 19.0209 130.094 18.8759C130.415 18.7294 130.658 18.5157 130.836 18.243C131.015 17.9679 131.1 17.6431 131.1 17.3006C131.1 16.9581 131.015 16.6644 130.838 16.4348C130.666 16.2129 130.442 16.0361 130.154 15.9117C129.876 15.7912 129.518 15.6717 129.081 15.5599C128.668 15.4494 128.381 15.3354 128.212 15.2089L128.212 15.2089L128.21 15.208C128.048 15.0909 127.967 14.9222 127.967 14.6855C127.967 14.4001 128.067 14.1869 128.252 14.0344C128.439 13.8803 128.711 13.7936 129.08 13.7936C129.354 13.7936 129.581 13.8401 129.765 13.9173C129.958 14.0025 130.16 14.135 130.384 14.3248L130.384 14.3249L130.388 14.3278C130.494 14.4096 130.602 14.4595 130.697 14.4595C130.811 14.4595 130.893 14.3874 130.954 14.3112C131.027 14.2207 131.057 14.114 131.057 13.9988C131.057 13.8385 130.995 13.7028 130.879 13.5888C130.664 13.3628 130.398 13.1886 130.088 13.0728C129.778 12.9572 129.444 12.9 129.08 12.9C128.689 12.9 128.333 12.9791 128.021 13.1322C127.707 13.2859 127.464 13.5065 127.287 13.7857C127.109 14.0671 127.024 14.3844 127.024 14.741C127.024 15.0972 127.108 15.3948 127.27 15.636C127.429 15.8743 127.649 16.0595 127.937 16.1915C128.216 16.3194 128.563 16.4393 128.983 16.5376C129.421 16.6483 129.723 16.7562 129.906 16.8719L129.906 16.8719L129.909 16.8732C130.074 16.9714 130.157 17.1242 130.157 17.3353C130.157 17.62 130.057 17.8254 129.874 17.9708C129.68 18.1189 129.402 18.1994 129.019 18.1994C128.472 18.1994 127.993 18.0272 127.572 17.6747L127.572 17.6747L127.569 17.6722C127.462 17.5897 127.354 17.5405 127.254 17.5405C127.147 17.5405 127.057 17.5966 126.993 17.6864C126.929 17.7762 126.9 17.8879 126.9 18.0012C126.9 18.1665 126.96 18.3029 127.071 18.4114Z" fill="#6D6E70" stroke="#6D6E70" stroke-width="0.2"/>
<path d="M126.01 13.16C126.12 13.26 126.17 13.41 126.17 13.59V18.47C126.17 18.64 126.11 18.77 126 18.88C125.89 18.98 125.74 19.04 125.56 19.04C125.39 19.04 125.26 18.99 125.15 18.89C125.05 18.79 124.99 18.66 124.99 18.49V18.03C124.81 18.37 124.55 18.62 124.23 18.8C123.91 18.98 123.54 19.06 123.14 19.06C121.72 19.06 121 18.28 121 16.71V13.59C121 13.41 121.05 13.26 121.16 13.16C121.27 13.06 121.42 13 121.61 13C121.8 13 121.94 13.05 122.05 13.16C122.16 13.26 122.21 13.41 122.21 13.59V16.7C122.21 17.17 122.31 17.52 122.5 17.74C122.69 17.96 122.99 18.08 123.39 18.08C123.86 18.08 124.24 17.93 124.52 17.62C124.8 17.31 124.95 16.91 124.95 16.41V13.59C124.95 13.41 125.01 13.27 125.12 13.16C125.23 13.05 125.38 13 125.56 13C125.74 13 125.89 13.05 126 13.16H126.01Z" fill="#6D6E70"/>
<defs>
<clipPath id="clip0_2201_5344">
<rect width="170" height="64" rx="8" fill="white"/>
</clipPath>
</defs>
</svg>
