<svg width="15" height="15" viewBox="0 0 15 15" fill="none" xmlns="http://www.w3.org/2000/svg">
<path d="M13.9049 0.328125H1.07529C0.862623 0.328125 0.65867 0.412605 0.508294 0.562981C0.357918 0.713357 0.273438 0.917311 0.273438 1.12997V13.9596C0.273438 14.1722 0.357918 14.3762 0.508294 14.5266C0.65867 14.6769 0.862623 14.7614 1.07529 14.7614H13.9049C14.1175 14.7614 14.3215 14.6769 14.4719 14.5266C14.6223 14.3762 14.7067 14.1722 14.7067 13.9596V1.12997C14.7067 0.917311 14.6223 0.713357 14.4719 0.562981C14.3215 0.412605 14.1175 0.328125 13.9049 0.328125V0.328125ZM4.55451 12.6261H2.41197V5.7382H4.55451V12.6261ZM3.48324 4.79764C3.15404 4.79764 2.83832 4.66686 2.60554 4.43408C2.37275 4.2013 2.24198 3.88558 2.24198 3.55637C2.24198 3.22717 2.37275 2.91145 2.60554 2.67867C2.83832 2.44588 3.15404 2.31511 3.48324 2.31511C3.81245 2.31511 4.12817 2.44588 4.36095 2.67867C4.59373 2.91145 4.7245 3.22717 4.7245 3.55637C4.7245 3.88558 4.59373 4.2013 4.36095 4.43408C4.12817 4.66686 3.81245 4.79764 3.48324 4.79764V4.79764ZM12.5722 12.6261H10.4321V9.27677C10.4321 8.47812 10.4176 7.45096 9.3191 7.45096C8.20453 7.45096 8.03534 8.32176 8.03534 9.22064V12.6269H5.89681V5.73901H7.94954V6.68038H7.97921C8.26387 6.13913 8.96308 5.56821 10.0031 5.56821C12.1713 5.56821 12.5714 6.9939 12.5714 8.84938V12.6261H12.5722Z" fill="#49454F"/>
</svg>
