<svg width="19" height="15" viewBox="0 0 19 15" fill="none" xmlns="http://www.w3.org/2000/svg">
<path d="M16.6591 3.92516C16.6704 4.08302 16.6704 4.24091 16.6704 4.39876C16.6704 9.2136 13.0057 14.7614 6.30775 14.7614C4.24423 14.7614 2.32732 14.1638 0.714844 13.1264C1.00803 13.1602 1.2899 13.1715 1.59437 13.1715C3.29702 13.1715 4.86441 12.5964 6.11605 11.6154C4.51486 11.5816 3.17301 10.5329 2.71068 9.08958C2.93622 9.12339 3.16173 9.14595 3.39855 9.14595C3.72554 9.14595 4.05257 9.10083 4.357 9.02194C2.68816 8.68363 1.43648 7.21776 1.43648 5.44743V5.40234C1.92133 5.67297 2.48518 5.8421 3.08276 5.86463C2.10175 5.21061 1.45904 4.0943 1.45904 2.83137C1.45904 2.15483 1.63942 1.53465 1.95517 0.993393C3.74807 3.20349 6.44305 4.64679 9.46499 4.80469C9.40862 4.53406 9.37478 4.25219 9.37478 3.97028C9.37478 1.96313 10.9985 0.328125 13.0169 0.328125C14.0656 0.328125 15.0128 0.767888 15.6781 1.47828C16.5012 1.32042 17.2905 1.01595 17.9897 0.598751C17.719 1.44447 17.1439 2.15486 16.3885 2.60587C17.1214 2.52698 17.8318 2.32396 18.4858 2.04209C17.9897 2.76373 17.3695 3.40643 16.6591 3.92516V3.92516Z" fill="#49454F"/>
</svg>
