<svg width="83" height="34" viewBox="0 0 83 34" fill="none" xmlns="http://www.w3.org/2000/svg">
<path d="M4.55938 7.47V20.43C4.55938 21.85 4.92937 22.94 5.66937 23.7C6.40937 24.44 7.44938 24.81 8.78938 24.81C10.1494 24.81 11.1994 24.44 11.9394 23.7C12.6794 22.94 13.0494 21.85 13.0494 20.43V7.47H17.2794V20.4C17.2794 22.18 16.8894 23.69 16.1094 24.93C15.3494 26.15 14.3194 27.07 13.0194 27.69C11.7394 28.31 10.3094 28.62 8.72938 28.62C7.16938 28.62 5.74938 28.31 4.46938 27.69C3.20938 27.07 2.20938 26.15 1.46938 24.93C0.729376 23.69 0.359375 22.18 0.359375 20.4V7.47H4.55938Z" fill="#DB3236"/>
<path d="M25.5373 7.47V28.41H21.3373V7.47H25.5373Z" fill="#DB3236"/>
<path d="M40.937 0L32.837 33.84H28.727L36.827 0H40.937Z" fill="#DB3236"/>
<path d="M48.4168 7.47V20.43C48.4168 21.85 48.7868 22.94 49.5268 23.7C50.2668 24.44 51.3068 24.81 52.6468 24.81C54.0068 24.81 55.0568 24.44 55.7968 23.7C56.5368 22.94 56.9068 21.85 56.9068 20.43V7.47H61.1368V20.4C61.1368 22.18 60.7468 23.69 59.9668 24.93C59.2068 26.15 58.1768 27.07 56.8768 27.69C55.5968 28.31 54.1668 28.62 52.5868 28.62C51.0268 28.62 49.6068 28.31 48.3268 27.69C47.0668 27.07 46.0668 26.15 45.3268 24.93C44.5868 23.69 44.2168 22.18 44.2168 20.4V7.47H48.4168Z" fill="#DB3236"/>
<path d="M77.7348 28.41L73.2048 21.36L69.0948 28.41H64.3548L70.9548 17.85L64.2648 7.47H69.0948L73.6248 14.49L77.7048 7.47H82.4448L75.8748 18L82.5648 28.41H77.7348Z" fill="#DB3236"/>
</svg>
