<svg width="29" height="16" viewBox="0 0 29 16" fill="none" xmlns="http://www.w3.org/2000/svg">
<path d="M14.7526 8.91383C16.6695 8.91383 18.3629 9.37247 19.7389 9.97223C21.0089 10.5367 21.8086 11.8068 21.8086 13.1827V13.9118C21.8086 14.5586 21.2794 15.0878 20.6326 15.0878H8.87263C8.22583 15.0878 7.69663 14.5586 7.69663 13.9118V13.1945C7.69663 11.8068 8.49631 10.5367 9.76639 9.98399C11.1423 9.37247 12.8357 8.91383 14.7526 8.91383ZM5.34463 9.20783C6.63823 9.20783 7.69663 8.14943 7.69663 6.85583C7.69663 5.56223 6.63823 4.50383 5.34463 4.50383C4.05103 4.50383 2.99263 5.56223 2.99263 6.85583C2.99263 8.14943 4.05103 9.20783 5.34463 9.20783ZM6.67351 10.5014C6.23839 10.4309 5.80327 10.3838 5.34463 10.3838C4.18039 10.3838 3.07495 10.6308 2.07535 11.0659C1.64929 11.248 1.28616 11.5513 1.03108 11.9381C0.775998 12.3249 0.640221 12.7782 0.640626 13.2415V13.9118C0.640626 14.5586 1.16983 15.0878 1.81663 15.0878H5.93263V13.1945C5.93263 12.2184 6.20311 11.3011 6.67351 10.5014ZM24.1606 9.20783C25.4542 9.20783 26.5126 8.14943 26.5126 6.85583C26.5126 5.56223 25.4542 4.50383 24.1606 4.50383C22.867 4.50383 21.8086 5.56223 21.8086 6.85583C21.8086 8.14943 22.867 9.20783 24.1606 9.20783ZM28.8646 13.2415C28.8646 12.2889 28.3001 11.4422 27.4299 11.0659C26.3987 10.616 25.2857 10.3837 24.1606 10.3838C23.702 10.3838 23.2669 10.4309 22.8317 10.5014C23.3021 11.3011 23.5726 12.2184 23.5726 13.1945V15.0878H27.6886C28.3354 15.0878 28.8646 14.5586 28.8646 13.9118V13.2415ZM14.7526 0.97583C16.7048 0.97583 18.2806 2.55167 18.2806 4.50383C18.2806 6.45599 16.7048 8.03183 14.7526 8.03183C12.8005 8.03183 11.2246 6.45599 11.2246 4.50383C11.2246 2.55167 12.8005 0.97583 14.7526 0.97583Z" fill="#292929"/>
</svg>
