<svg width="28" height="17" viewBox="0 0 28 17" fill="none" xmlns="http://www.w3.org/2000/svg">
<path d="M9.11882 14.1071L3.6515 8.63981L9.11882 3.17248C9.66555 2.62575 9.66555 1.75659 9.11882 1.20985C8.57209 0.663122 7.70292 0.663122 7.15619 1.20985L0.721573 7.64447C0.17484 8.1912 0.17484 9.07439 0.721573 9.62112L7.15619 16.0698C7.70292 16.6165 8.57209 16.6165 9.11882 16.0698C9.66555 15.523 9.66555 14.6539 9.11882 14.1071ZM18.3712 14.1071L23.8385 8.63981L18.3712 3.17248C17.8245 2.62575 17.8245 1.75659 18.3712 1.20985C18.9179 0.663122 19.7871 0.663122 20.3338 1.20985L26.7685 7.64447C27.3152 8.1912 27.3152 9.07439 26.7685 9.62112L20.3338 16.0698C19.7871 16.6165 18.9179 16.6165 18.3712 16.0698C17.8245 15.523 17.8245 14.6539 18.3712 14.1071Z" fill="black"/>
</svg>
