<svg width="9" height="20" viewBox="0 0 9 20" fill="none" xmlns="http://www.w3.org/2000/svg">
<path d="M6.34488 0.624023C5.87717 0.624023 5.42861 0.809822 5.09789 1.14055C4.76716 1.47127 4.58136 1.91983 4.58136 2.38754C4.58136 2.85526 4.76716 3.30381 5.09789 3.63454C5.42861 3.96526 5.87717 4.15106 6.34488 4.15106C6.8126 4.15106 7.26115 3.96526 7.59188 3.63454C7.9226 3.30381 8.1084 2.85526 8.1084 2.38754C8.1084 1.91983 7.9226 1.47127 7.59188 1.14055C7.26115 0.809822 6.8126 0.624023 6.34488 0.624023ZM5.92164 6.23201C4.52258 6.34958 0.701622 9.39459 0.701622 9.39459C0.466487 9.57094 0.537028 9.55918 0.725136 9.88837C0.913245 10.2058 0.889731 10.2293 1.11311 10.0765C1.34825 9.92364 1.73622 9.67675 2.38284 9.27702C4.87528 7.6781 2.78257 11.3697 1.71271 17.5891C1.28946 20.6693 4.06406 19.0822 4.78123 18.6119C5.48664 18.1534 7.37948 16.8484 7.56759 16.7191C7.82624 16.5427 7.63813 16.4016 7.43826 16.1077C7.29718 15.9079 7.1561 16.0489 7.1561 16.0489C6.39191 16.5545 4.99285 17.6126 4.80474 16.9424C4.58136 16.2723 6.01569 11.6754 6.8034 8.51283C6.93272 7.7604 7.28543 6.11444 5.92164 6.23201Z" fill="#292929"/>
</svg>
