<svg width="20" height="20" viewBox="0 0 20 20" fill="none" xmlns="http://www.w3.org/2000/svg">
<path d="M19.7213 2.64002V17.424C19.7213 18.5374 18.8187 19.44 17.7053 19.44H2.92127C1.80785 19.44 0.905273 18.5374 0.905273 17.424V2.64002C0.905273 1.5266 1.80785 0.624023 2.92127 0.624023H17.7053C18.8187 0.624023 19.7213 1.5266 19.7213 2.64002ZM16.0253 3.31202H11.3225C10.4273 3.31202 9.97513 4.39819 10.6097 5.0328L11.953 6.37626L3.7409 14.5884C3.54409 14.7852 3.54409 15.1043 3.7409 15.3012L5.04412 16.6044C5.24098 16.8012 5.56009 16.8012 5.7569 16.6044L13.969 8.3923L15.3125 9.73592C15.9437 10.3671 17.0333 9.92387 17.0333 9.02314V4.32002C17.0333 3.76331 16.582 3.31202 16.0253 3.31202Z" fill="#292929"/>
</svg>
