{
  "asset": {
    "generator": "Khronos glTF Blender I/O v3.5.30",
    "version": "2.0"
  },
  "scene": 0,
  "scenes": [
    {
      "name": "Scene",
      "nodes": [0, 1, 2, 3]
    }
  ],
  "nodes": [
    {
      "mesh": 0,
      "name": "Yellow.001",
      "translation": [-0.034154415130615234, 0, 0]
    },
    {
      "mesh": 1,
      "name": "Red.001",
      "translation": [-0.034154415130615234, 0, 0]
    },
    {
      "mesh": 2,
      "name": "Blue.002",
      "translation": [-0.034154415130615234, 0, 0]
    },
    {
      "mesh": 3,
      "name": "Green.002",
      "translation": [-0.034154415130615234, 0, 0]
    }
  ],
  "materials": [
    {
      "doubleSided": true,
      "name": "Material.001",
      "pbrMetallicRoughness": {
        "baseColorFactor": [
          0.9046610593795776, 0.5394791960716248, 0.004024894908070564, 1
        ],
        "metallicFactor": 0,
        "roughnessFactor": 0.5
      }
    },
    {
      "doubleSided": true,
      "name": "Material.003",
      "pbrMetallicRoughness": {
        "baseColorFactor": [
          0.06480257213115692, 0.23455014824867249, 0.8468732833862305, 1
        ],
        "metallicFactor": 0,
        "roughnessFactor": 0.5
      }
    },
    {
      "doubleSided": true,
      "name": "Material.004",
      "pbrMetallicRoughness": {
        "baseColorFactor": [
          0.7083760499954224, 0.031895849853754044, 0.036889467388391495, 1
        ],
        "metallicFactor": 0,
        "roughnessFactor": 0.5
      }
    },
    {
      "doubleSided": true,
      "name": "Material.005",
      "pbrMetallicRoughness": {
        "baseColorFactor": [
          0.045185793191194534, 0.4910205900669098, 0.08865570276975632, 1
        ],
        "metallicFactor": 0,
        "roughnessFactor": 0.5
      }
    }
  ],
  "meshes": [
    {
      "name": "Mesh.001",
      "primitives": [
        {
          "attributes": {
            "POSITION": 0,
            "NORMAL": 1
          },
          "indices": 2,
          "material": 0
        }
      ]
    },
    {
      "name": "Mesh.002",
      "primitives": [
        {
          "attributes": {
            "POSITION": 3,
            "NORMAL": 4
          },
          "indices": 5,
          "material": 1
        }
      ]
    },
    {
      "name": "Mesh.003",
      "primitives": [
        {
          "attributes": {
            "POSITION": 6,
            "NORMAL": 7
          },
          "indices": 8,
          "material": 2
        }
      ]
    },
    {
      "name": "Mesh.004",
      "primitives": [
        {
          "attributes": {
            "POSITION": 9,
            "NORMAL": 10
          },
          "indices": 11,
          "material": 3
        }
      ]
    }
  ],
  "accessors": [
    {
      "bufferView": 0,
      "componentType": 5126,
      "count": 830,
      "max": [0.1586807668209076, 0.24800029397010803, -0.2734031677246094],
      "min": [-0.12155193090438843, -0.7683939933776855, -1.6671247482299805],
      "type": "VEC3"
    },
    {
      "bufferView": 1,
      "componentType": 5126,
      "count": 830,
      "type": "VEC3"
    },
    {
      "bufferView": 2,
      "componentType": 5123,
      "count": 4968,
      "type": "SCALAR"
    },
    {
      "bufferView": 3,
      "componentType": 5126,
      "count": 862,
      "max": [0.1610627919435501, 0.24800045788288116, 1.66712486743927],
      "min": [-0.13391900062561035, -0.7683942317962646, 0.2734032869338989],
      "type": "VEC3"
    },
    {
      "bufferView": 4,
      "componentType": 5126,
      "count": 862,
      "type": "VEC3"
    },
    {
      "bufferView": 5,
      "componentType": 5123,
      "count": 5160,
      "type": "SCALAR"
    },
    {
      "bufferView": 6,
      "componentType": 5126,
      "count": 848,
      "max": [0.15631811320781708, 0.7565715312957764, 1.6623799800872803],
      "min": [-0.1282745897769928, -0.25664442777633667, 0.25979840755462646],
      "type": "VEC3"
    },
    {
      "bufferView": 7,
      "componentType": 5126,
      "count": 848,
      "type": "VEC3"
    },
    {
      "bufferView": 8,
      "componentType": 5123,
      "count": 5076,
      "type": "SCALAR"
    },
    {
      "bufferView": 9,
      "componentType": 5126,
      "count": 996,
      "max": [0.16859373450279236, 0.7565715312957764, -0.28785616159439087],
      "min": [-0.13097752630710602, -0.2566443681716919, -1.6904374361038208],
      "type": "VEC3"
    },
    {
      "bufferView": 10,
      "componentType": 5126,
      "count": 996,
      "type": "VEC3"
    },
    {
      "bufferView": 11,
      "componentType": 5123,
      "count": 5964,
      "type": "SCALAR"
    }
  ],
  "bufferViews": [
    {
      "buffer": 0,
      "byteLength": 9960,
      "byteOffset": 0,
      "target": 34962
    },
    {
      "buffer": 0,
      "byteLength": 9960,
      "byteOffset": 9960,
      "target": 34962
    },
    {
      "buffer": 0,
      "byteLength": 9936,
      "byteOffset": 19920,
      "target": 34963
    },
    {
      "buffer": 0,
      "byteLength": 10344,
      "byteOffset": 29856,
      "target": 34962
    },
    {
      "buffer": 0,
      "byteLength": 10344,
      "byteOffset": 40200,
      "target": 34962
    },
    {
      "buffer": 0,
      "byteLength": 10320,
      "byteOffset": 50544,
      "target": 34963
    },
    {
      "buffer": 0,
      "byteLength": 10176,
      "byteOffset": 60864,
      "target": 34962
    },
    {
      "buffer": 0,
      "byteLength": 10176,
      "byteOffset": 71040,
      "target": 34962
    },
    {
      "buffer": 0,
      "byteLength": 10152,
      "byteOffset": 81216,
      "target": 34963
    },
    {
      "buffer": 0,
      "byteLength": 11952,
      "byteOffset": 91368,
      "target": 34962
    },
    {
      "buffer": 0,
      "byteLength": 11952,
      "byteOffset": 103320,
      "target": 34962
    },
    {
      "buffer": 0,
      "byteLength": 11928,
      "byteOffset": 115272,
      "target": 34963
    }
  ],
  "buffers": [
    {
      "byteLength": 127200,
      "uri": "data:application/octet-stream;base64,"
    }
  ]
}
