{
  "asset": {
    "generator": "Khronos glTF Blender I/O v3.5.30",
    "version": "2.0"
  },
  "scene": 0,
  "scenes": [
    {
      "name": "Scene",
      "nodes": [0]
    }
  ],
  "nodes": [
    {
      "mesh": 0,
      "name": "GDSC2",
      "rotation": [0, 0, -0.7071066498756409, 0.70710688829422],
      "scale": [0.17386773228645325, 0.17386773228645325, 0.17386776208877563],
      "translation": [-0.004173114895820618, 0.303530752658844, -0.3902849853038788]
    }
  ],
  "materials": [
    {
      "doubleSided": true,
      "emissiveFactor": [0, 0.24325799942016602, 0.026840653270483017],
      "name": "Green.001",
      "pbrMetallicRoughness": {
        "baseColorFactor": [0, 0.24325799942016602, 0.03389984369277954, 1],
        "metallicFactor": 0,
        "roughnessFactor": 0.5
      }
    },
    {
      "doubleSided": true,
      "emissiveFactor": [0.47353148460388184, 0.2195259928703308, 0],
      "name": "Yellow.001",
      "pbrMetallicRoughness": {
        "baseColorFactor": [0.40328967571258545, 0.1878618448972702, 0, 1],
        "metallicFactor": 0,
        "roughnessFactor": 0.857798159122467
      }
    },
    {
      "doubleSided": true,
      "emissiveFactor": [0, 0.030711403116583824, 0.44798898696899414],
      "name": "Blue.001",
      "pbrMetallicRoughness": {
        "baseColorFactor": [0, 0.02677537500858307, 0.3800569176673889, 1],
        "metallicFactor": 0,
        "roughnessFactor": 0.5
      }
    },
    {
      "doubleSided": true,
      "emissiveFactor": [1, 0, 0],
      "name": "Material.009",
      "pbrMetallicRoughness": {
        "baseColorFactor": [1, 0, 0, 1],
        "metallicFactor": 0,
        "roughnessFactor": 0.5
      }
    }
  ],
  "meshes": [
    {
      "name": "Mesh.005",
      "primitives": [
        {
          "attributes": {
            "POSITION": 0,
            "NORMAL": 1
          },
          "indices": 2,
          "material": 0
        },
        {
          "attributes": {
            "POSITION": 3,
            "NORMAL": 4
          },
          "indices": 5,
          "material": 1
        },
        {
          "attributes": {
            "POSITION": 6,
            "NORMAL": 7
          },
          "indices": 8,
          "material": 2
        },
        {
          "attributes": {
            "POSITION": 9,
            "NORMAL": 10
          },
          "indices": 11,
          "material": 3
        }
      ]
    }
  ],
  "accessors": [
    {
      "bufferView": 0,
      "componentType": 5126,
      "count": 996,
      "max": [3.221846103668213, 0.8558823466300964, 0.5891190767288208],
      "min": [-2.605663299560547, -0.8671011328697205, -7.477823257446289],
      "type": "VEC3"
    },
    {
      "bufferView": 1,
      "componentType": 5126,
      "count": 996,
      "type": "VEC3"
    },
    {
      "bufferView": 2,
      "componentType": 5123,
      "count": 5964,
      "type": "SCALAR"
    },
    {
      "bufferView": 3,
      "componentType": 5126,
      "count": 832,
      "max": [6.165173530578613, 0.7988672852516174, 0.6722450256347656],
      "min": [0.3193831443786621, -0.8128905296325684, -7.343740463256836],
      "type": "VEC3"
    },
    {
      "bufferView": 4,
      "componentType": 5126,
      "count": 832,
      "type": "VEC3"
    },
    {
      "bufferView": 5,
      "componentType": 5123,
      "count": 4980,
      "type": "SCALAR"
    },
    {
      "bufferView": 6,
      "componentType": 5126,
      "count": 861,
      "max": [6.165174961090088, 0.7990883588790894, 11.833187103271484],
      "min": [0.3193821907043457, -0.8974989652633667, 3.817201614379883],
      "type": "VEC3"
    },
    {
      "bufferView": 7,
      "componentType": 5126,
      "count": 861,
      "type": "VEC3"
    },
    {
      "bufferView": 8,
      "componentType": 5123,
      "count": 5154,
      "type": "SCALAR"
    },
    {
      "bufferView": 9,
      "componentType": 5126,
      "count": 845,
      "max": [3.221846342086792, 0.7718003988265991, 11.805896759033203],
      "min": [-2.605663299560547, -0.8650342226028442, 3.738952875137329],
      "type": "VEC3"
    },
    {
      "bufferView": 10,
      "componentType": 5126,
      "count": 845,
      "type": "VEC3"
    },
    {
      "bufferView": 11,
      "componentType": 5123,
      "count": 5058,
      "type": "SCALAR"
    }
  ],
  "bufferViews": [
    {
      "buffer": 0,
      "byteLength": 11952,
      "byteOffset": 0,
      "target": 34962
    },
    {
      "buffer": 0,
      "byteLength": 11952,
      "byteOffset": 11952,
      "target": 34962
    },
    {
      "buffer": 0,
      "byteLength": 11928,
      "byteOffset": 23904,
      "target": 34963
    },
    {
      "buffer": 0,
      "byteLength": 9984,
      "byteOffset": 35832,
      "target": 34962
    },
    {
      "buffer": 0,
      "byteLength": 9984,
      "byteOffset": 45816,
      "target": 34962
    },
    {
      "buffer": 0,
      "byteLength": 9960,
      "byteOffset": 55800,
      "target": 34963
    },
    {
      "buffer": 0,
      "byteLength": 10332,
      "byteOffset": 65760,
      "target": 34962
    },
    {
      "buffer": 0,
      "byteLength": 10332,
      "byteOffset": 76092,
      "target": 34962
    },
    {
      "buffer": 0,
      "byteLength": 10308,
      "byteOffset": 86424,
      "target": 34963
    },
    {
      "buffer": 0,
      "byteLength": 10140,
      "byteOffset": 96732,
      "target": 34962
    },
    {
      "buffer": 0,
      "byteLength": 10140,
      "byteOffset": 106872,
      "target": 34962
    },
    {
      "buffer": 0,
      "byteLength": 10116,
      "byteOffset": 117012,
      "target": 34963
    }
  ],
  "buffers": [
    {
      "byteLength": 127128,
      "uri": "data:application/octet-stream;base64,"
    }
  ]
}
