{
  "asset": {
    "generator": "Khronos glTF Blender I/O v3.4.50",
    "version": "2.0"
  },
  "scene": 0,
  "scenes": [
    {
      "name": "Scene",
      "nodes": [0, 1, 2, 3]
    }
  ],
  "nodes": [
    {
      "mesh": 0,
      "name": "Yellow.001",
      "translation": [-0.034154415130615234, 0, 0]
    },
    {
      "mesh": 1,
      "name": "Red.001",
      "translation": [-0.034154415130615234, 0, 0]
    },
    {
      "mesh": 2,
      "name": "Blue.002",
      "translation": [-0.034154415130615234, 0, 0]
    },
    {
      "mesh": 3,
      "name": "Green.002",
      "translation": [-0.034154415130615234, 0, 0]
    }
  ],
  "materials": [
    {
      "doubleSided": true,
      "name": "Material.007",
      "pbrMetallicRoughness": {
        "baseColorFactor": [
          0.9046610593795776, 0.5394791960716248, 0.004024894908070564, 1
        ],
        "metallicFactor": 0,
        "roughnessFactor": 0.5
      }
    },
    {
      "doubleSided": true,
      "name": "Material.008",
      "pbrMetallicRoughness": {
        "baseColorFactor": [
          0.06480257213115692, 0.23455014824867249, 0.8468732833862305, 1
        ],
        "metallicFactor": 0,
        "roughnessFactor": 0.5
      }
    },
    {
      "doubleSided": true,
      "name": "Material.010",
      "pbrMetallicRoughness": {
        "baseColorFactor": [
          0.7083760499954224, 0.031895849853754044, 0.036889467388391495, 1
        ],
        "metallicFactor": 0,
        "roughnessFactor": 0.5
      }
    },
    {
      "doubleSided": true,
      "name": "Material.006",
      "pbrMetallicRoughness": {
        "baseColorFactor": [
          0.045185793191194534, 0.4910205900669098, 0.08865570276975632, 1
        ],
        "metallicFactor": 0,
        "roughnessFactor": 0.5
      }
    }
  ],
  "meshes": [
    {
      "name": "Mesh.043",
      "primitives": [
        {
          "attributes": {
            "POSITION": 0,
            "NORMAL": 1
          },
          "indices": 2,
          "material": 0
        }
      ]
    },
    {
      "name": "Mesh.044",
      "primitives": [
        {
          "attributes": {
            "POSITION": 3,
            "NORMAL": 4
          },
          "indices": 2,
          "material": 1
        }
      ]
    },
    {
      "name": "Mesh.045",
      "primitives": [
        {
          "attributes": {
            "POSITION": 5,
            "NORMAL": 6
          },
          "indices": 2,
          "material": 2
        }
      ]
    },
    {
      "name": "Mesh.046",
      "primitives": [
        {
          "attributes": {
            "POSITION": 7,
            "NORMAL": 8
          },
          "indices": 2,
          "material": 3
        }
      ]
    }
  ],
  "accessors": [
    {
      "bufferView": 0,
      "componentType": 5126,
      "count": 3024,
      "max": [0.15888142585754395, 0.2482147067785263, -0.2731884717941284],
      "min": [-0.12175247818231583, -0.7686084508895874, -1.6673393249511719],
      "type": "VEC3"
    },
    {
      "bufferView": 1,
      "componentType": 5126,
      "count": 3024,
      "type": "VEC3"
    },
    {
      "bufferView": 2,
      "componentType": 5123,
      "count": 18132,
      "type": "SCALAR"
    },
    {
      "bufferView": 3,
      "componentType": 5126,
      "count": 3024,
      "max": [0.16127407550811768, 0.24821487069129944, 1.6673394441604614],
      "min": [-0.1341300904750824, -0.768608808517456, 0.27318859100341797],
      "type": "VEC3"
    },
    {
      "bufferView": 4,
      "componentType": 5126,
      "count": 3024,
      "type": "VEC3"
    },
    {
      "bufferView": 5,
      "componentType": 5126,
      "count": 3024,
      "max": [0.1565219908952713, 0.7567863464355469, 1.6625947952270508],
      "min": [-0.12847831845283508, -0.2568589448928833, 0.2595837116241455],
      "type": "VEC3"
    },
    {
      "bufferView": 6,
      "componentType": 5126,
      "count": 3024,
      "type": "VEC3"
    },
    {
      "bufferView": 7,
      "componentType": 5126,
      "count": 3024,
      "max": [0.16880810260772705, 0.7567863464355469, -0.2876414656639099],
      "min": [-0.13119199872016907, -0.2568588852882385, -1.6906522512435913],
      "type": "VEC3"
    },
    {
      "bufferView": 8,
      "componentType": 5126,
      "count": 3024,
      "type": "VEC3"
    }
  ],
  "bufferViews": [
    {
      "buffer": 0,
      "byteLength": 36288,
      "byteOffset": 0,
      "target": 34962
    },
    {
      "buffer": 0,
      "byteLength": 36288,
      "byteOffset": 36288,
      "target": 34962
    },
    {
      "buffer": 0,
      "byteLength": 36264,
      "byteOffset": 72576,
      "target": 34963
    },
    {
      "buffer": 0,
      "byteLength": 36288,
      "byteOffset": 108840,
      "target": 34962
    },
    {
      "buffer": 0,
      "byteLength": 36288,
      "byteOffset": 145128,
      "target": 34962
    },
    {
      "buffer": 0,
      "byteLength": 36288,
      "byteOffset": 181416,
      "target": 34962
    },
    {
      "buffer": 0,
      "byteLength": 36288,
      "byteOffset": 217704,
      "target": 34962
    },
    {
      "buffer": 0,
      "byteLength": 36288,
      "byteOffset": 253992,
      "target": 34962
    },
    {
      "buffer": 0,
      "byteLength": 36288,
      "byteOffset": 290280,
      "target": 34962
    }
  ],
  "buffers": [
    {
      "byteLength": 326568,
      "uri": "data:application/octet-stream;base64,"
    }
  ]
}
