{
  "asset": {
    "generator": "Khronos glTF Blender I/O v3.2.43",
    "version": "2.0"
  },
  "scene": 0,
  "scenes": [
    {
      "name": "Scene",
      "nodes": [0]
    }
  ],
  "nodes": [
    {
      "mesh": 0,
      "name": "GDSC2",
      "rotation": [0, 0, -0.7071066498756409, 0.70710688829422],
      "scale": [0.17386774718761444, 0.17386774718761444, 0.17386776208877563],
      "translation": [-0.004173114895820618, 0.303530752658844, -0.3902849853038788]
    }
  ],
  "materials": [
    {
      "doubleSided": true,
      "emissiveFactor": [0, 0.24325799942016602, 0.026840653270483017],
      "name": "Green",
      "pbrMetallicRoughness": {
        "baseColorFactor": [0, 0.24325799942016602, 0.03389984369277954, 1],
        "metallicFactor": 0,
        "roughnessFactor": 0.5
      }
    },
    {
      "doubleSided": true,
      "emissiveFactor": [0.47353148460388184, 0.2195259928703308, 0],
      "name": "Yellow",
      "pbrMetallicRoughness": {
        "baseColorFactor": [0.40328967571258545, 0.1878618448972702, 0, 1],
        "metallicFactor": 0,
        "roughnessFactor": 0.857798159122467
      }
    },
    {
      "doubleSided": true,
      "emissiveFactor": [0, 0.030711403116583824, 0.44798898696899414],
      "name": "Blue",
      "pbrMetallicRoughness": {
        "baseColorFactor": [0, 0.02677537500858307, 0.3800569176673889, 1],
        "metallicFactor": 0,
        "roughnessFactor": 0.5
      }
    },
    {
      "doubleSided": true,
      "emissiveFactor": [1, 0, 0],
      "name": "Material.002",
      "pbrMetallicRoughness": {
        "baseColorFactor": [1, 0, 0, 1],
        "metallicFactor": 0,
        "roughnessFactor": 0.5
      }
    }
  ],
  "meshes": [
    {
      "name": "Mesh.008",
      "primitives": [
        {
          "attributes": {
            "POSITION": 0,
            "NORMAL": 1
          },
          "indices": 2,
          "material": 0
        },
        {
          "attributes": {
            "POSITION": 3,
            "NORMAL": 4
          },
          "indices": 2,
          "material": 1
        },
        {
          "attributes": {
            "POSITION": 5,
            "NORMAL": 6
          },
          "indices": 2,
          "material": 2
        },
        {
          "attributes": {
            "POSITION": 7,
            "NORMAL": 8
          },
          "indices": 2,
          "material": 3
        }
      ]
    }
  ],
  "accessors": [
    {
      "bufferView": 0,
      "componentType": 5126,
      "count": 3024,
      "max": [3.2230799198150635, 0.8571155667304993, 0.5903540253639221],
      "min": [-2.606898546218872, -0.8683342337608337, -7.479059219360352],
      "type": "VEC3"
    },
    {
      "bufferView": 1,
      "componentType": 5126,
      "count": 3024,
      "type": "VEC3"
    },
    {
      "bufferView": 2,
      "componentType": 5123,
      "count": 18132,
      "type": "SCALAR"
    },
    {
      "bufferView": 3,
      "componentType": 5126,
      "count": 3024,
      "max": [6.166407585144043, 0.800022304058075, 0.6734800338745117],
      "min": [0.31814995408058167, -0.8140440583229065, -7.344974517822266],
      "type": "VEC3"
    },
    {
      "bufferView": 4,
      "componentType": 5126,
      "count": 3024,
      "type": "VEC3"
    },
    {
      "bufferView": 5,
      "componentType": 5126,
      "count": 3024,
      "max": [6.166409492492676, 0.8003045320510864, 11.834421157836914],
      "min": [0.31814900040626526, -0.8987131118774414, 3.8159666061401367],
      "type": "VEC3"
    },
    {
      "bufferView": 6,
      "componentType": 5126,
      "count": 3024,
      "type": "VEC3"
    },
    {
      "bufferView": 7,
      "componentType": 5126,
      "count": 3024,
      "max": [3.2230801582336426, 0.7729736566543579, 11.807132720947266],
      "min": [-2.606898546218872, -0.8662060499191284, 3.737717866897583],
      "type": "VEC3"
    },
    {
      "bufferView": 8,
      "componentType": 5126,
      "count": 3024,
      "type": "VEC3"
    }
  ],
  "bufferViews": [
    {
      "buffer": 0,
      "byteLength": 36288,
      "byteOffset": 0
    },
    {
      "buffer": 0,
      "byteLength": 36288,
      "byteOffset": 36288
    },
    {
      "buffer": 0,
      "byteLength": 36264,
      "byteOffset": 72576
    },
    {
      "buffer": 0,
      "byteLength": 36288,
      "byteOffset": 108840
    },
    {
      "buffer": 0,
      "byteLength": 36288,
      "byteOffset": 145128
    },
    {
      "buffer": 0,
      "byteLength": 36288,
      "byteOffset": 181416
    },
    {
      "buffer": 0,
      "byteLength": 36288,
      "byteOffset": 217704
    },
    {
      "buffer": 0,
      "byteLength": 36288,
      "byteOffset": 253992
    },
    {
      "buffer": 0,
      "byteLength": 36288,
      "byteOffset": 290280
    }
  ],
  "buffers": [
    {
      "byteLength": 326568,
      "uri": "data:application/octet-stream;base64,"
    }
  ]
}
