{
  "asset": {
    "generator": "Khronos glTF Blender I/O v3.2.43",
    "version": "2.0"
  },
  "scene": 0,
  "scenes": [
    {
      "name": "Scene",
      "nodes": [0]
    }
  ],
  "nodes": [
    {
      "mesh": 0,
      "name": "GDSC",
      "rotation": [
        -0.6148161292076111, -0.6148160696029663, -0.34928667545318604,
        0.34928664565086365
      ],
      "scale": [0.17386776208877563, 0.16264386475086212, 0.17386776208877563]
    }
  ],
  "materials": [
    {
      "doubleSided": true,
      "emissiveFactor": [0.47353148460388184, 0.2195259928703308, 0],
      "name": "Material.001",
      "pbrMetallicRoughness": {
        "baseColorFactor": [0.40328967571258545, 0.1878618448972702, 0, 1],
        "metallicFactor": 0,
        "roughnessFactor": 0.5
      }
    },
    {
      "doubleSided": true,
      "emissiveFactor": [1, 0, 0],
      "name": "Material.002",
      "pbrMetallicRoughness": {
        "baseColorFactor": [1, 0, 0, 1],
        "metallicFactor": 0,
        "roughnessFactor": 0.5
      }
    },
    {
      "doubleSided": true,
      "emissiveFactor": [0, 0.030711403116583824, 0.44798898696899414],
      "name": "Material.003",
      "pbrMetallicRoughness": {
        "baseColorFactor": [0, 0.02677537500858307, 0.3800569176673889, 1],
        "metallicFactor": 0,
        "roughnessFactor": 0.5
      }
    },
    {
      "doubleSided": true,
      "emissiveFactor": [0, 0.24325799942016602, 0.026840653270483017],
      "name": "Material.004",
      "pbrMetallicRoughness": {
        "baseColorFactor": [0, 0.24325799942016602, 0.03389984369277954, 1],
        "metallicFactor": 0,
        "roughnessFactor": 0.5
      }
    }
  ],
  "meshes": [
    {
      "name": "Mesh.001",
      "primitives": [
        {
          "attributes": {
            "POSITION": 0,
            "NORMAL": 1
          },
          "indices": 2,
          "material": 0
        },
        {
          "attributes": {
            "POSITION": 3,
            "NORMAL": 4
          },
          "indices": 2,
          "material": 1
        },
        {
          "attributes": {
            "POSITION": 5,
            "NORMAL": 6
          },
          "indices": 2,
          "material": 2
        },
        {
          "attributes": {
            "POSITION": 7,
            "NORMAL": 8
          },
          "indices": 2,
          "material": 3
        }
      ]
    }
  ],
  "accessors": [
    {
      "bufferView": 0,
      "componentType": 5126,
      "count": 3024,
      "max": [-2.597910165786743, 1.7254494428634644, 5.503046035766602],
      "min": [-8.427887916564941, -3.033351276826579e-7, -2.5663671493530273],
      "type": "VEC3"
    },
    {
      "bufferView": 1,
      "componentType": 5126,
      "count": 3024,
      "type": "VEC3"
    },
    {
      "bufferView": 2,
      "componentType": 5123,
      "count": 18132,
      "type": "SCALAR"
    },
    {
      "bufferView": 3,
      "componentType": 5126,
      "count": 3024,
      "max": [8.50025463104248, 1.7582248449325562, 2.3449838161468506],
      "min": [2.6702768802642822, -0.058038607239723206, -5.724430084228516],
      "type": "VEC3"
    },
    {
      "bufferView": 4,
      "componentType": 5126,
      "count": 3024,
      "type": "VEC3"
    },
    {
      "bufferView": 5,
      "componentType": 5126,
      "count": 3024,
      "max": [8.4408540725708, 1.7234758138656616, -2.684238910675049],
      "min": [-0.36168819665908813, -0.028820661827921867, -5.684507369995117],
      "type": "VEC3"
    },
    {
      "bufferView": 6,
      "componentType": 5126,
      "count": 3024,
      "type": "VEC3"
    },
    {
      "bufferView": 7,
      "componentType": 5126,
      "count": 3024,
      "max": [0.2954353988170624, 1.7864831686019897, 5.545745849609375],
      "min": [-8.50710391998291, -0.05803900212049484, 2.5454790592193604],
      "type": "VEC3"
    },
    {
      "bufferView": 8,
      "componentType": 5126,
      "count": 3024,
      "type": "VEC3"
    }
  ],
  "bufferViews": [
    {
      "buffer": 0,
      "byteLength": 36288,
      "byteOffset": 0
    },
    {
      "buffer": 0,
      "byteLength": 36288,
      "byteOffset": 36288
    },
    {
      "buffer": 0,
      "byteLength": 36264,
      "byteOffset": 72576
    },
    {
      "buffer": 0,
      "byteLength": 36288,
      "byteOffset": 108840
    },
    {
      "buffer": 0,
      "byteLength": 36288,
      "byteOffset": 145128
    },
    {
      "buffer": 0,
      "byteLength": 36288,
      "byteOffset": 181416
    },
    {
      "buffer": 0,
      "byteLength": 36288,
      "byteOffset": 217704
    },
    {
      "buffer": 0,
      "byteLength": 36288,
      "byteOffset": 253992
    },
    {
      "buffer": 0,
      "byteLength": 36288,
      "byteOffset": 290280
    }
  ],
  "buffers": [
    {
      "byteLength": 326568,
      "uri": "data:application/octet-stream;base64,"
    }
  ]
}
